,
Brought to you by  http://www.scenetime.com/signup.php
 
 Hottest scene tracker on the net !!!   
 
No fake torrents from scenebalance 
shame on those who comment fake before downloading my torrents

    seed back for speed


 



...................................NFO:.................................................[img]http://noob.hu/2011/05/28/the-hangover-2-poster-500x286.jpg[img]                                        
 

                  ::::::::::::  EP1C Presents  ::::::::::::

::File:: The.Hangover.Part.II.2011.TS.XViD-EP1C

::Video Source:: CiNEDUB
::Audio Source:: Own
::Language:::::: English
::IMDB:::::::::: http://www.imdb.com/title/tt1411697/

Right after the bachelor party in Las Vegas, Phil, Stu, Alan, and Doug 
jet to Thailand for Stu's wedding. Stu's plan for a subdued pre-wedding 
brunch, however, goes seriously awry.

::Specs:::::::::

Format                           : AVI
Format/Info                      : Audio Video Interleave
File size                        : 1.37 GiB
Duration                         : 1h 35mn
Overall bit rate                 : 2 060 Kbps
Writing application              : VirtualDubMod 1.5.10.2 (build 2540/release)
Writing library                  : VirtualDubMod build 2540/release

Video
ID                               : 0
Format                           : MPEG-4 Visual
Format profile                   : Advanced Simple@L5
Format settings, BVOP            : Yes
Format settings, QPel            : No
Format settings, GMC             : No warppoints
Format settings, Matrix          : Default (MPEG)
Muxing mode                      : Packed bitstream
Codec ID                         : XVID
Codec ID/Hint                    : XviD
Duration                         : 1h 35mn
Bit rate                         : 1 922 Kbps
Width                            : 688 pixels
Height                           : 336 pixels
Display aspect ratio             : 2.048
Frame rate                       : 25.000 fps
Color space                      : YUV
Chroma subsampling               : 4:2:0
Bit depth                        : 8 bits
Scan type                        : Progressive
Bits/(Pixel*Frame)               : 0.333
Stream size                      : 1.28 GiB (93%)
Writing library                  : XviD 58

Audio
ID                               : 1
Format                           : MPEG Audio
Format version                   : Version 1
Format profile                   : Layer 3
Codec ID                         : 55
Codec ID/Hint                    : MP3
Duration                         : 1h 35mn
Bit rate mode                    : Constant
Bit rate                         : 128 Kbps
Channel(s)                       : 2 channels
Sampling rate                    : 44.1 KHz
Stream size                      : 87.2 MiB (6%)
Alignment                        : Split accross interleaves
Interleave, duration             : 40 ms (1.00 video frame)
Interleave, preload duration     : 500 ms

::NOTES::::::::: 
Presenting the first TS of Hangover Part II. 
Enjoy. //EP1C

:: Got something we might be interested in? contact us: epic@hushmail.me ::

::::::::::::::::::::::::::::::::  RESPECT  :::::::::::::::::::::::::::::::::
IMAGiNE, Rx, FLAWL3SS, ViSiON, T0XiC, HiVE, bobwhite & All Our Friends!

                 ::::::::::::::::  We Are  ::::::::::::::::  
               :::::: Surpassing the usual or ordinary ::::::
::::::::::::::::::    Heroic and impressive in quality    ::::::::::::::::::     
 ::::::::::::::::::::::::::::::::   EP1C   ::::::::::::::::::::::::::::::::

[img]http://noob.hu/2011/05/28/vlcsnap-2011-05-28-11h03m33s48.png[/img]
[img]http://noob.hu/2011/05/28/vlcsnap-2011-05-28-11h02m46s68.png[/img]
[img]http://noob.hu/2011/05/28/vlcsnap-2011-05-28-11h03m17s153.png[/img]
[img]http://noob.hu/2011/05/28/vlcsnap-2011-05-28-11h01m22s252.png[/img]
[img]http://noob.hu/2011/05/28/vlcsnap-2011-05-28-11h02m11s239.png[/img]